#!OML:ASF F:\VICON\USERDATA\INSTALL\Justin_Nancy\Justin_Nancy.ASF
:FULLY-SPECIFIED
:DEGREES
243
root 0.159398 17.0416 24.7487 -0.590875 6.15927 0.771449
lowerback 6.94386 -2.42793 -2.56735
upperback -0.295399 -3.29172 3.83746
thorax -3.82931 -1.55038 5.77524
lowerneck -17.3737 -2.48137 -9.24394
upperneck 21.921 -1.73439 3.56833
head 9.97308 -1.16297 2.56016
rclavicle -2.97183e-014 -1.11319e-014
rhumerus -50.7629 -29.4204 -59.5293
rradius 20.4016
rwrist 18.0379
rhand -14.484 11.4042
rfingers 7.12502
rthumb 11.6623 -18.2512
lclavicle -2.97183e-014 -1.11319e-014
lhumerus -23.7831 5.23811 84.8502
lradius 35.5631
lwrist -3.09356
lhand -17.6293 24.516
lfingers 7.12502
lthumb 8.62813 54.3197
rfemur -26.348 1.74389 21.9858
rtibia 32.9028
rfoot -2.48217 -4.37626
rtoes 1.84622
lfemur 3.11038 -6.70503 -21.9169
ltibia 50.4537
lfoot 26.881 -15.4064
ltoes -11.6783
244
root 0.15015 17.0684 24.9938 -0.706734 6.43591 0.0833814
lowerback 7.03511 -2.46039 -1.80475
upperback -0.303568 -3.26364 4.00662
thorax -3.92472 -1.54696 5.52382
lowerneck -17.5221 -2.54284 -9.20428
upperneck 21.9449 -1.82868 3.61796
head 10.0158 -1.19662 2.5583
rclavicle 3.47873e-014 1.27222e-014
rhumerus -50.2142 -28.8957 -60.2565
rradius 20.7524
rwrist 17.1555
rhand -14.5016 11.9235
rfingers 7.12502
rthumb 11.6454 -17.7329
lclavicle 3.47873e-014 1.27222e-014
lhumerus -23.954 4.99471 85.0334
lradius 35.3804
lwrist -3.25299
lhand -16.9058 25.6348
lfingers 7.12502
lthumb 9.32624 55.4085
rfemur -25.0765 1.60896 22.9091
rtibia 32.5622
rfoot -3.09028 -4.75255
rtoes 0.82592
lfemur 1.2295 -6.99684 -21.1047
ltibia 53.1002
lfoot 26.3134 -15.0763
ltoes -11.8133
245
root 0.139572 17.0981 25.2323 -0.784738 6.6651 -0.521484
lowerback 7.10875 -2.46255 -1.21278
upperback -0.413654 -3.20464 4.19544
thorax -4.10887 -1.52174 5.39093
lowerneck -17.3803 -2.58046 -9.36953
upperneck 22.0041 -1.90052 3.82195
head 10.0191 -1.22202 2.64974
rclavicle -1.62506e-014 -9.54166e-015
rhumerus -49.6083 -28.1785 -60.9258
rradius 20.9218
rwrist 16.4091
rhand -14.6369 11.9853
rfingers 7.12502
rthumb 11.5149 -17.6784
lclavicle -1.62506e-014 -9.54166e-015
lhumerus -24.2148 4.6796 85.3319
lradius 34.9813
lwrist -3.43973
lhand -16.9447 25.8757
lfingers 7.12502
lthumb 9.28869 55.6511
rfemur -23.8707 1.58873 23.7089
rtibia 32.1541
rfoot -3.67544 -4.96787
rtoes -0.307671
lfemur -0.782563 -7.23312 -20.366
ltibia 55.6313
lfoot 24.3805 -13.7253
ltoes -11.0617
246
root 0.122481 17.1293 25.4682 -0.831376 6.69809 -1.2458
lowerback 7.06821 -2.41899 -0.692778
upperback -0.451459 -3.0891 4.47412
thorax -4.14946 -1.47107 5.37845
lowerneck -17.4392 -2.63021 -9.47167
upperneck 22.1673 -1.96438 3.93341
head 10.0957 -1.24983 2.69993
rclavicle 1.55549e-014 -1.74931e-014
rhumerus -48.765 -27.8848 -61.3147
rradius 20.6861
rwrist 16.4353
rhand -15.0381 11.9945
rfingers 7.12502
rthumb 11.128 -17.6904
lclavicle 1.55549e-014 -1.74931e-014
lhumerus -24.3111 4.52255 85.6099
lradius 34.4038
lwrist -3.39828
lhand -16.9291 25.4848
lfingers 7.12502
lthumb 9.30375 55.2596
rfemur -22.748 2.01297 24.6737
rtibia 31.6714
rfoot -4.10638 -5.62009
rtoes -0.625011
lfemur -2.80313 -7.16318 -19.4121
ltibia 57.9956
lfoot 21.8585 -12.3712
ltoes -10.6055
247
root 0.104317 17.1583 25.6973 -0.894367 6.72377 -1.81112
lowerback 7.00838 -2.34824 -0.334926
upperback -0.378869 -2.95877 4.67839
thorax -4.06022 -1.41429 5.37208
lowerneck -17.4937 -2.73238 -9.44477
upperneck 22.1487 -2.12698 4.00324
head 10.1116 -1.31332 2.6974
rclavicle -4.47266e-014 1.59028e-014
rhumerus -47.8287 -27.5753 -61.9702
rradius 20.8084
rwrist 16.3434
rhand -15.0577 12.1371
rfingers 7.12502
rthumb 11.1091 -17.5488
lclavicle -4.47266e-014 1.59028e-014
lhumerus -24.1697 4.33849 85.9031
lradius 33.7959
lwrist -3.41959
lhand -16.4351 26.5545
lfingers 7.12502
lthumb 9.78037 56.3074
rfemur -21.6454 2.44743 25.4915
rtibia 31.1803
rfoot -4.51539 -6.35856
rtoes -0.377275
lfemur -4.75489 -7.02514 -18.6316
ltibia 60.088
lfoot 19.1291 -11.2089
ltoes -9.46666
248
root 0.0943727 17.1975 25.9275 -0.879132 6.81435 -2.17209
lowerback 6.72504 -2.28411 -0.0650232
upperback -0.231216 -2.85778 4.81034
thorax -3.76305 -1.37523 5.32628
lowerneck -17.4865 -2.81145 -9.42005
upperneck 21.9218 -2.26125 4.07793
head 10.0391 -1.35978 2.6981
rclavicle -1.60519e-014 -6.36111e-015
rhumerus -46.8025 -27.3139 -62.6513
rradius 21.0711
rwrist 16.2522
rhand -15.0394 11.9701
rfingers 7.12502
rthumb 11.1267 -17.7149
lclavicle -1.60519e-014 -6.36111e-015
lhumerus -23.9904 4.21006 86.242
lradius 33.2372
lwrist -3.94832
lhand -16.2593 27.1163
lfingers 7.12502
lthumb 9.94996 56.8612
rfemur -20.5981 2.52476 26.0644
rtibia 30.7042
rfoot -5.11119 -6.70407
rtoes 0.162534
lfemur -6.7283 -6.87245 -18.159
ltibia 61.8378
lfoot 16.6189 -10.1696
ltoes -9.1623
249
root 0.0819944 17.2353 26.1629 -0.859436 6.87338 -2.30975
lowerback 6.56029 -2.17904 -0.0306319
upperback -0.213548 -2.71731 4.87579
thorax -3.66332 -1.30719 5.35334
lowerneck -17.4367 -2.9106 -9.55378
upperneck 21.9134 -2.41267 4.26089
head 10.0422 -1.41963 2.76466
rclavicle -2.95692e-014 2.54444e-014
rhumerus -45.9544 -27.0285 -63.1583
rradius 21.214
rwrist 16.1795
rhand -15.165 11.8741
rfingers 7.12502
rthumb 11.0056 -17.8174
lclavicle -2.95692e-014 2.54444e-014
lhumerus -24.076 4.18713 86.516
lradius 32.5778
lwrist -5.13265
lhand -16.3532 26.1742
lfingers 7.12502
lthumb 9.85938 55.9234
rfemur -19.5444 2.56662 26.4055
rtibia 30.2577
rfoot -5.70295 -6.96307
rtoes 0.363658
lfemur -8.52547 -6.64956 -17.9273
ltibia 63.2103
lfoot 14.053 -9.52553
ltoes -9.85843
250
root 0.0672339 17.2572 26.3887 -0.978287 6.89919 -2.40158
lowerback 6.65452 -2.08118 -0.100024
upperback -0.208059 -2.58727 4.93591
thorax -3.71674 -1.23961 5.44954
lowerneck -17.3113 -2.96575 -9.56078
upperneck 21.9765 -2.5125 4.30215
head 10.0496 -1.4637 2.76803
rclavicle 1.19271e-014 -1.27222e-014
rhumerus -45.1258 -26.7793 -63.5933
rradius 21.341
rwrist 16.2365
rhand -15.2558 11.9931
rfingers 7.12502
rthumb 10.918 -17.703
lclavicle 1.19271e-014 -1.27222e-014
lhumerus -24.4115 4.23107 86.758
lradius 32.1212
lwrist -6.53601
lhand -16.3547 25.1662
lfingers 7.12502
lthumb 9.85796 54.9154
rfemur -18.4019 2.69254 26.7087
rtibia 29.877
rfoot -6.18784 -7.27104
rtoes 0.196291
lfemur -10.1122 -6.42602 -17.7347
ltibia 64.3022
lfoot 11.6316 -8.66445
ltoes -9.54217
251
root 0.0653802 17.268 26.6087 -1.10086 6.76314 -2.64785
lowerback 6.66627 -1.97239 0.140222
upperback -0.18004 -2.42061 5.00478
thorax -3.7169 -1.1605 5.37004
lowerneck -17.0509 -2.98526 -9.50649
upperneck 21.9193 -2.5723 4.26445
head 9.98357 -1.49249 2.7375
rclavicle -6.65929e-015 1.43125e-014
rhumerus -44.2215 -26.5314 -64.0081
rradius 21.3851
rwrist 16.5082
rhand -15.4454 12.0385
rfingers 7.12502
rthumb 10.7351 -17.6672
lclavicle -6.65929e-015 1.43125e-014
lhumerus -24.8781 4.15954 87.0058
lradius 31.9506
lwrist -7.12435
lhand -16.5072 24.5198
lfingers 7.12502
lthumb 9.7108 54.2759
rfemur -17.2169 2.78942 27.1611
rtibia 29.6029
rfoot -6.6834 -7.5316
rtoes -0.599206
lfemur -11.6596 -6.13976 -17.4652
ltibia 65.1525
lfoot 9.35025 -7.39828
ltoes -10.0561
252
root 0.0627095 17.2756 26.8253 -1.11267 6.44673 -2.81725
lowerback 6.74222 -1.79862 0.311269
upperback -0.26148 -2.16804 5.02108
thorax -3.8731 -1.03423 5.27307
lowerneck -16.8194 -2.98516 -9.46515
upperneck 22.019 -2.61643 4.29144
head 9.97848 -1.51024 2.7366
rclavicle 8.15017e-015 2.70347e-014
rhumerus -43.3751 -26.1825 -64.4714
rradius 21.3447
rwrist 16.7633
rhand -15.5058 11.7985
rfingers 7.12502
rthumb 10.6769 -17.9102
lclavicle 8.15017e-015 2.70347e-014
lhumerus -25.4733 4.05472 87.2078
lradius 31.7926
lwrist -7.29357
lhand -16.6479 24.0469
lfingers 7.12502
lthumb 9.57511 53.8093
rfemur -16.1983 3.04109 27.5239
rtibia 29.3837
rfoot -6.94261 -7.6618
rtoes -1.1887
lfemur -13.3317 -5.7154 -17.2948
ltibia 65.797
lfoot 7.18545 -6.15856
ltoes -12.4742
